<svg xmlns="http://www.w3.org/2000/svg" width="90" height="90" viewBox="0 0 90 90">
    <path fill="#16C658" fill-rule="nonzero" d="M76.8 13.148c8.801 8.8 13.2 19.398 13.2 31.8C90 57.384 85.6 67.98 76.8 76.75c-6.07 6.093-13.02 10.078-20.851 11.949V59.397c2.164-3.168 5.484-5.433 9.949-6.8-4.867 3.433-7.715 7.148-8.551 11.148 11.5 4.132 19.668-2.75 24.5-20.648-19.469-3.735-29.281 1.468-29.449 15.602V89.398a48.106 48.106 0 0 1-5.102.5L47.3 57c0-.7-.015-1.383-.05-2.051 1.132-20.832-11.898-28.051-39.102-21.652 5.765 25.832 17.016 34.898 33.75 27.199-.73-5.531-4.2-10.098-10.398-13.699.03 0 .082.016.148.05 6.266 1.567 10.336 4.837 12.199 9.802v33.273c-11.938-.258-22.172-4.648-30.699-13.176C4.382 67.98 0 57.383 0 44.949c0-12.398 4.383-23 13.148-31.801C21.948 4.382 32.566 0 45 0c12.434 0 23.031 4.383 31.801 13.148z"/>
</svg>
