<svg xmlns="http://www.w3.org/2000/svg" width="82" height="106" viewBox="0 0 82 106">
    <path fill="#16C658" fill-rule="nonzero" d="M37.133 57H22.5a1.5 1.5 0 0 1 0-3h14.633a1.5 1.5 0 0 1 0 3zM60.5 24h-38a1.5 1.5 0 0 1 0-3h38a1.5 1.5 0 0 1 0 3zm0 11h-38a1.5 1.5 0 0 1 0-3h38a1.5 1.5 0 0 1 0 3zm0 11h-38a1.5 1.5 0 0 1 0-3h38a1.5 1.5 0 0 1 0 3zM0 .02h82v94H70.418L68.09 87.5c.762-1.07 1.383-1.238 1.86-2.48H73v-76H9v76h32.008c.485 1.266 1.121 1.453 1.903 2.535l-2.309 6.465H0v-94zm64.738 86.875l5.613 15.723-6.726-3.969-2.692 7.332-5.343-14.965c-.04 0-.075.008-.164.004l-5.344 14.961-2.692-7.332-6.726 3.969 5.597-15.672a12.442 12.442 0 0 1-3.285-8.426c0-6.902 5.598-12.5 12.5-12.5 6.903 0 12.5 5.598 12.5 12.5 0 3.227-1.23 6.156-3.238 8.375zM55.48 84.02a5.5 5.5 0 0 0 0-11 5.503 5.503 0 0 0-5.5 5.5c0 3.035 2.465 5.5 5.5 5.5z"/>
</svg>
