<svg xmlns="http://www.w3.org/2000/svg" width="80" height="111"><g fill="none"><path fill="#16C658" d="M79.242 30.423a2.764 2.764 0 0 0-.994-3.072l-9.392-6.895-3.635-11.1a2.747 2.747 0 0 0-2.6-1.898L50.989 7.41 41.545.59a2.718 2.718 0 0 0-3.208 0l-9.433 6.833-11.632.041a2.755 2.755 0 0 0-2.6 1.898l-3.635 11.105-9.387 6.895a2.765 2.765 0 0 0-.994 3.067L4.22 41.554.656 52.69a2.764 2.764 0 0 0 .994 3.072l9.392 6.895 3.26 9.951-12.42 21.16a2.774 2.774 0 0 0 .17 3.062 2.76 2.76 0 0 0 2.878 1.013l13.63-3.538 3.527 13.692a2.745 2.745 0 0 0 2.657 2.069c1.426 0 1.504 0 15.102-21.398l11.76 20.038a2.743 2.743 0 0 0 2.756 1.33 2.755 2.755 0 0 0 2.276-2.044l3.527-13.691 13.63 3.538a2.75 2.75 0 0 0 2.878-1.014c.67-.89.736-2.1.17-3.062L65.154 73.844c.01-.024 1.247-3.757 3.708-11.198l9.387-6.895a2.765 2.765 0 0 0 .993-3.072L75.68 41.554l3.563-11.131zM23.199 90.25a2.754 2.754 0 0 0-3.347-1.981l-9.876 2.56 8.908-15.17 10.02.036 8.686 6.284c-.21.336-7.353 11.57-11.755 18.502L23.199 90.25zM8.605 41.553c0-17.356 14.057-31.485 31.344-31.485 17.286 0 31.343 14.13 31.343 31.485 0 17.357-14.057 31.486-31.343 31.486-17.287 0-31.344-14.13-31.344-31.486zM68.753 90.83l-9.876-2.56a2.751 2.751 0 0 0-3.347 1.98l-2.554 9.921-10.658-18.176c-.004-.003 2.89-2.105 8.681-6.305l8.851-.036 8.903 15.176zm-.598-49.279c0 15.65-12.627 28.344-28.206 28.344-15.58 0-28.207-12.694-28.207-28.344s12.627-28.334 28.207-28.334 28.206 12.684 28.206 28.334z"/><path fill="#F0F1F2" d="M36.152 53c-.702 0-1.405-.352-1.755-.878l-5.967-7.02c-.878-1.054-.878-2.808.175-3.687 1.053-1.053 2.633-.878 3.511.175l4.213 4.914 11.76-13.69c.878-1.054 2.457-1.054 3.51-.176a2.714 2.714 0 0 1 .175 3.686l-13.69 15.798c-.53.526-1.23.878-1.932.878z"/></g></svg>